<?xml version="1.0" standalone="no"?>
<!DOCTYPE svg PUBLIC "-//W3C//DTD SVG 20010904//EN"
 "http://www.w3.org/TR/2001/REC-SVG-20010904/DTD/svg10.dtd">
<svg version="1.0" xmlns="http://www.w3.org/2000/svg"
 width="512.000000pt" height="512.000000pt" viewBox="0 0 512.000000 512.000000"
 preserveAspectRatio="xMidYMid meet">

<g transform="translate(0.000000,512.000000) scale(0.100000,-0.100000)"
fill="#646CFF" stroke="none">
<path d="M2370 5114 c-19 -2 -78 -9 -130 -15 -548 -62 -1083 -325 -1489 -730
-405 -406 -652 -907 -732 -1489 -18 -125 -18 -515 0 -640 80 -582 327 -1083
732 -1489 658 -657 1607 -906 2504 -654 929 260 1646 1043 1819 1987 156 845
-103 1682 -705 2285 -399 398 -879 639 -1449 726 -100 15 -472 28 -550 19z
m40 -1444 c0 -1108 1 -1142 19 -1178 11 -21 372 -389 815 -832 438 -437 796
-798 796 -802 0 -4 -37 -36 -82 -71 -259 -201 -557 -347 -859 -420 -201 -49
-309 -61 -539 -61 -230 0 -338 12 -539 61 -325 78 -653 246 -921 471 -443 371
-736 934 -790 1517 -61 669 179 1326 660 1805 346 346 772 558 1280 639 30 5
79 9 108 10 l52 1 0 -1140z m505 1120 c458 -74 872 -281 1212 -603 284 -269
518 -670 619 -1057 29 -112 64 -317 64 -377 l0 -43 -1050 0 -1050 0 0 1050 0
1050 43 0 c23 0 96 -9 162 -20z m1895 -2422 c0 -61 -35 -266 -64 -378 -76
-292 -219 -578 -413 -828 -35 -45 -67 -82 -71 -82 -4 0 -306 299 -672 665
l-665 665 943 0 942 0 0 -42z"/>
</g>
</svg>
